<svg width="145" height="145" viewBox="0 0 145 145" fill="none" xmlns="http://www.w3.org/2000/svg">
<g clip-path="url(#clip0_14_36)">
<path d="M6.77953 144.63H70.0552C70.6545 144.63 71.2293 144.392 71.6531 143.968C72.0769 143.544 72.315 142.97 72.315 142.37C72.315 141.771 72.0769 141.196 71.6531 140.772C71.2293 140.348 70.6545 140.11 70.0552 140.11H6.77953C6.18018 140.11 5.60538 139.872 5.18158 139.448C4.75778 139.025 4.51969 138.45 4.51969 137.85V6.77953C4.51969 6.18018 4.75778 5.60538 5.18158 5.18158C5.60538 4.75778 6.18018 4.51969 6.77953 4.51969H101.693C102.292 4.51969 102.867 4.75778 103.291 5.18158C103.715 5.60538 103.953 6.18018 103.953 6.77953V29.378C103.953 29.9773 104.191 30.5521 104.615 30.9759C105.039 31.3997 105.613 31.6378 106.213 31.6378C106.812 31.6378 107.387 31.3997 107.811 30.9759C108.234 30.5521 108.473 29.9773 108.473 29.378V6.77953C108.473 3.04175 105.431 0 101.693 0H6.77953C3.04175 0 0 3.04175 0 6.77953V137.85C0 141.588 3.04175 144.63 6.77953 144.63Z" fill="#fff"/>
<path d="M81.3544 47.4567V137.85C81.3544 141.588 84.3961 144.63 88.1339 144.63H137.85C141.588 144.63 144.63 141.588 144.63 137.85V47.4567C144.63 43.7189 141.588 40.6772 137.85 40.6772H88.1339C84.3961 40.6772 81.3544 43.7189 81.3544 47.4567ZM140.11 47.4567V137.85C140.11 138.45 139.872 139.025 139.448 139.448C139.025 139.872 138.45 140.11 137.85 140.11H88.1339C87.5346 140.11 86.9598 139.872 86.5359 139.448C86.1121 139.025 85.8741 138.45 85.8741 137.85V47.4567C85.8741 46.8574 86.1121 46.2826 86.5359 45.8588C86.9598 45.435 87.5346 45.1969 88.1339 45.1969H137.85C138.45 45.1969 139.025 45.435 139.448 45.8588C139.872 46.2826 140.11 46.8574 140.11 47.4567Z" fill="#fff"/>
<path d="M54.2362 131.071C56.7324 131.071 58.7559 129.047 58.7559 126.551C58.7559 124.055 56.7324 122.032 54.2362 122.032C51.7401 122.032 49.7166 124.055 49.7166 126.551C49.7166 129.047 51.7401 131.071 54.2362 131.071Z" fill="#fff"/>
<path d="M112.992 131.071C115.488 131.071 117.512 129.047 117.512 126.551C117.512 124.055 115.488 122.032 112.992 122.032C110.496 122.032 108.473 124.055 108.473 126.551C108.473 129.047 110.496 131.071 112.992 131.071Z" fill="#fff"/>
</g>
<defs>
<clipPath id="clip0_14_36">
<rect width="144.63" height="144.63" fill="white"/>
</clipPath>
</defs>
</svg>
