<?xml version="1.0" encoding="utf-8"?>
<!-- Generator: Adobe Illustrator 26.5.0, SVG Export Plug-In . SVG Version: 6.00 Build 0)  -->
<svg version="1.1" id="Layer_1" xmlns="http://www.w3.org/2000/svg" xmlns:xlink="http://www.w3.org/1999/xlink" x="0px" y="0px"
	 viewBox="0 0 595.28 841.89" style="enable-background:new 0 0 595.28 841.89;" xml:space="preserve">
<style type="text/css">
	.st0{fill:#191E29;}
	.st1{fill:none;stroke:#191E29;stroke-width:6;stroke-linecap:round;stroke-miterlimit:10;}
	.st2{fill:#FAFCFD;}
	.st3{fill:#F9F9FA;stroke:#191E29;stroke-width:2;stroke-linecap:round;stroke-linejoin:round;stroke-miterlimit:10;}
</style>
<g>
	<path class="st0" d="M80.15,300.1H45v-12.69h85.57v12.69H95.24v102.89H80.15V300.1z"/>
	<path class="st0" d="M177.9,402.99l-1.2-10.46h-0.51c-4.63,6.52-13.55,12.35-25.38,12.35c-16.81,0-25.38-11.83-25.38-23.84
		c0-20.06,17.83-31.04,49.9-30.87v-1.71c0-6.86-1.89-19.21-18.86-19.21c-7.72,0-15.78,2.4-21.61,6.17l-3.43-9.95
		c6.86-4.46,16.8-7.37,27.26-7.37c25.38,0,31.55,17.32,31.55,33.95v31.04c0,7.2,0.34,14.23,1.37,19.89H177.9z M175.67,360.63
		c-16.46-0.34-35.15,2.57-35.15,18.69c0,9.77,6.52,14.4,14.23,14.4c10.8,0,17.66-6.86,20.06-13.89c0.51-1.54,0.86-3.26,0.86-4.8
		V360.63z"/>
	<path class="st0" d="M408.36,352.23c-0.86-16.12-1.89-35.5-1.72-49.9h-0.51c-3.95,13.55-8.75,27.95-14.58,43.9l-20.4,56.07h-11.32
		l-18.69-55.05c-5.49-16.29-10.12-31.21-13.38-44.93h-0.34c-0.34,14.4-1.2,33.78-2.23,51.1l-3.09,49.56h-14.23l8.06-115.58h19.03
		l19.72,55.9c4.8,14.23,8.75,26.92,11.66,38.93h0.51c2.91-11.66,7.03-24.35,12.17-38.93l20.58-55.9h19.03l7.2,115.58h-14.58
		L408.36,352.23z"/>
	<path class="st0" d="M457.74,364.24c0.34,20.4,13.38,28.81,28.47,28.81c10.8,0,17.32-1.89,22.98-4.29l2.57,10.81
		c-5.32,2.4-14.41,5.14-27.61,5.14c-25.55,0-40.81-16.8-40.81-41.84c0-25.04,14.75-44.76,38.93-44.76c27.09,0,34.3,23.84,34.3,39.1
		c0,3.09-0.34,5.49-0.51,7.03H457.74z M501.99,353.43c0.17-9.6-3.94-24.52-20.92-24.52c-15.26,0-21.95,14.06-23.15,24.52H501.99z"/>
</g>
<g>
	<line class="st1" x1="311.76" y1="480.11" x2="247.76" y2="379.77"/>
	<circle class="st0" cx="249.5" cy="373.58" r="53.59"/>
	<circle class="st2" cx="249.49" cy="373.58" r="41.35"/>
</g>
<rect x="287.09" y="424.49" transform="matrix(0.8552 -0.5183 0.5183 0.8552 -193.9974 220.2513)" class="st3" width="20.19" height="65.67"/>
<path class="st3" d="M252.99,337.33c2.63,0.22,11.65,1.32,19.43,8.76c8.15,7.79,9.45,17.3,9.71,19.84"/>
</svg>