<svg width="105" height="105" viewBox="0 0 105 105" fill="none" xmlns="http://www.w3.org/2000/svg">
<path d="M74.9135 0.338593H29.7166C21.9278 0.347564 14.4606 3.44561 8.95314 8.95311C3.44565 14.4606 0.347595 21.9278 0.338623 29.7166V74.9134C0.347595 82.7022 3.44565 90.1694 8.95314 95.6769C14.4606 101.184 21.9278 104.282 29.7166 104.291H56.8347C57.077 104.292 57.3176 104.252 57.5466 104.173C71.9305 99.3819 99.3819 71.9304 104.173 57.5465C104.252 57.3176 104.292 57.0769 104.291 56.8347V29.7166C104.282 21.9278 101.184 14.4606 95.6769 8.95311C90.1694 3.44561 82.7022 0.347564 74.9135 0.338593ZM4.85831 74.9134V29.7166C4.86579 23.126 7.48718 16.8076 12.1474 12.1474C16.8076 7.48715 23.1261 4.86576 29.7166 4.85828H74.9135C81.504 4.86576 87.8225 7.48715 92.4827 12.1474C97.1429 16.8076 99.7643 23.126 99.7718 29.7166V54.5748H83.9528C76.1641 54.5838 68.6969 57.6819 63.1894 63.1894C57.6819 68.6969 54.5838 76.164 54.5749 83.9528V99.7717H29.7166C23.1261 99.7642 16.8076 97.1429 12.1474 92.4826C7.48718 87.8224 4.86579 81.504 4.85831 74.9134ZM59.0946 98.6418V83.9528C59.102 77.3623 61.7234 71.0438 66.3836 66.3836C71.0439 61.7234 77.3623 59.102 83.9528 59.0945H98.6418C92.3708 71.6536 71.6536 92.3707 59.0946 98.6418Z" fill="#fff"/>
</svg>
