<svg width="148" height="126" viewBox="0 0 148 126" fill="none" xmlns="http://www.w3.org/2000/svg">
<path d="M95.271 57.6386C100.449 57.6386 104.646 53.3471 104.646 48.0533C104.646 42.7594 100.449 38.4679 95.271 38.4679C90.0935 38.4679 85.8964 42.7594 85.8964 48.0533C85.8964 53.3471 90.0935 57.6386 95.271 57.6386Z" stroke="#fff" stroke-width="3" stroke-linecap="round" stroke-linejoin="round"/>
<path d="M122.423 54.4308C122.423 45.3763 118.906 36.6926 112.644 30.2901C106.382 23.8876 97.8891 20.2907 89.0336 20.2907" stroke="#fff" stroke-width="3" stroke-linecap="round" stroke-linejoin="round"/>
<path d="M140.657 54.4308C140.657 47.4993 139.322 40.6357 136.728 34.2319C134.133 27.8281 130.331 22.0095 125.537 17.1084C120.743 12.2073 115.052 8.31959 108.789 5.66737C102.526 3.01515 95.8127 1.65032 89.0336 1.65082M49.7253 27.7072H14.7038C11.2516 27.7072 7.94089 29.1093 5.49987 31.6052C3.05885 34.1011 1.6875 37.4862 1.6875 41.0159V111.04C1.6875 114.57 3.05885 117.955 5.49987 120.451C7.94089 122.947 11.2516 124.349 14.7038 124.349H133.296C136.748 124.349 140.059 122.947 142.5 120.451C144.941 117.955 146.312 114.57 146.312 111.04V74.7162" stroke="#fff" stroke-width="3" stroke-linecap="round" stroke-linejoin="round"/>
<path d="M23.8977 92V70.1818H30.9396C32.4879 70.1818 33.7805 70.4624 34.8175 71.0234C35.8615 71.5774 36.6463 72.348 37.1719 73.3352C37.7045 74.3153 37.9709 75.4411 37.9709 76.7124C37.9709 77.9837 37.7045 79.1058 37.1719 80.0788C36.6463 81.0518 35.8651 81.8118 34.8281 82.3587C33.7912 82.9055 32.5057 83.179 30.9716 83.179H24.9737V81.3572H30.9183C32.0547 81.3572 32.9993 81.169 33.7521 80.7926C34.5121 80.4162 35.0767 79.88 35.446 79.1839C35.8224 78.4879 36.0107 77.6641 36.0107 76.7124C36.0107 75.7607 35.8224 74.9297 35.446 74.2195C35.0696 73.5021 34.5014 72.9482 33.7415 72.5575C32.9886 72.1669 32.0369 71.9716 30.8864 71.9716H25.8899V92H23.8977ZM33.5178 82.1562L38.8871 92H36.5859L31.2699 82.1562H33.5178ZM42.8235 92V70.1818H55.4478V71.9716H44.8157V80.1854H54.457V81.9751H44.8157V92H42.8235ZM62.3938 70.1818V92H60.4016V70.1818H62.3938ZM74.5866 92H68.1946V70.1818H74.9702C77.0511 70.1818 78.8303 70.6151 80.3075 71.4815C81.7919 72.348 82.9283 73.5909 83.7166 75.2102C84.505 76.8295 84.8991 78.772 84.8991 81.0376C84.8991 83.3246 84.4943 85.2884 83.6847 86.929C82.8821 88.5625 81.7102 89.8161 80.169 90.6896C78.6349 91.5632 76.7741 92 74.5866 92ZM70.1868 90.2102H74.4695C76.3445 90.2102 77.9141 89.8409 79.1783 89.1023C80.4425 88.3636 81.3906 87.3089 82.0227 85.9382C82.6548 84.5675 82.9709 82.9339 82.9709 81.0376C82.9638 79.1555 82.6513 77.5362 82.0334 76.1797C81.4226 74.8232 80.5135 73.7827 79.3061 73.0582C78.1058 72.3338 76.6214 71.9716 74.853 71.9716H70.1868V90.2102Z" fill="#fff"/>
</svg>
