<svg width="103" height="127" viewBox="0 0 103 127" fill="none" xmlns="http://www.w3.org/2000/svg">
<path d="M15.1575 105.499V51.2625C15.1575 41.6729 18.9669 32.4761 25.7478 25.6953C32.5286 18.9144 41.7254 15.105 51.315 15.105C60.9046 15.105 70.1014 18.9144 76.8822 25.6953C83.6631 32.4761 87.4725 41.6729 87.4725 51.2625V105.499M15.1575 105.499H87.4725M15.1575 105.499H3.105M87.4725 105.499H99.525M45.2887 123.577H57.3412" stroke="#fff" stroke-width="5" stroke-linecap="round" stroke-linejoin="round"/>
<path d="M51.315 15.105C54.6432 15.105 57.3412 12.4069 57.3412 9.07874C57.3412 5.75053 54.6432 3.05249 51.315 3.05249C47.9868 3.05249 45.2887 5.75053 45.2887 9.07874C45.2887 12.4069 47.9868 15.105 51.315 15.105Z" stroke="#fff" stroke-width="5"/>
</svg>
