<?xml version="1.0" encoding="utf-8"?>
<!-- Generator: Adobe Illustrator 26.0.2, SVG Export Plug-In . SVG Version: 6.00 Build 0)  -->
<svg version="1.1" id="Layer_1" xmlns="http://www.w3.org/2000/svg" xmlns:xlink="http://www.w3.org/1999/xlink" x="0px" y="0px"
	 viewBox="0 0 595.3 841.9" style="enable-background:new 0 0 595.3 841.9;" xml:space="preserve">
<style type="text/css">
	.st0{fill:#191E29;}
	.st1{fill:none;stroke:#191E29;stroke-width:6;stroke-linecap:round;stroke-miterlimit:10;}
	.st2{fill:#FAFCFD;}
	.st3{fill:#F9F9FA;stroke:#191E29;stroke-width:2;stroke-linecap:round;stroke-linejoin:round;stroke-miterlimit:10;}
</style>
<g>
	<g>
		<path class="st0" d="M80.2,300.1H45v-12.7h85.6v12.7H95.2V403h-15V300.1z"/>
		<path class="st0" d="M177.9,403l-1.2-10.5h-0.5c-4.6,6.5-13.6,12.4-25.4,12.4c-16.8,0-25.4-11.8-25.4-23.8
			c0-20.1,17.8-31,49.9-30.9v-1.7c0-6.9-1.9-19.2-18.9-19.2c-7.7,0-15.8,2.4-21.6,6.2l-3.4-10c6.9-4.5,16.8-7.4,27.3-7.4
			c25.4,0,31.6,17.3,31.6,34v31c0,7.2,0.3,14.2,1.4,19.9H177.9L177.9,403z M175.7,360.6c-16.5-0.3-35.2,2.6-35.2,18.7
			c0,9.8,6.5,14.4,14.2,14.4c10.8,0,17.7-6.9,20.1-13.9c0.5-1.5,0.9-3.3,0.9-4.8V360.6L175.7,360.6z"/>
		<path class="st0" d="M408.4,352.2c-0.9-16.1-1.9-35.5-1.7-49.9h-0.5c-4,13.5-8.8,28-14.6,43.9l-20.4,56.1h-11.3l-18.7-55
			c-5.5-16.3-10.1-31.2-13.4-44.9h-0.3c-0.3,14.4-1.2,33.8-2.2,51.1l-3.1,49.6H308l8.1-115.6h19l19.7,55.9
			c4.8,14.2,8.8,26.9,11.7,38.9h0.5c2.9-11.7,7-24.4,12.2-38.9l20.6-55.9h19l7.2,115.6h-14.6L408.4,352.2z"/>
		<path class="st0" d="M457.7,364.2c0.3,20.4,13.4,28.8,28.5,28.8c10.8,0,17.3-1.9,23-4.3l2.6,10.8c-5.3,2.4-14.4,5.1-27.6,5.1
			c-25.5,0-40.8-16.8-40.8-41.8s14.8-44.8,38.9-44.8c27.1,0,34.3,23.8,34.3,39.1c0,3.1-0.3,5.5-0.5,7L457.7,364.2L457.7,364.2z
			 M502,353.4c0.2-9.6-3.9-24.5-20.9-24.5c-15.3,0-22,14.1-23.1,24.5H502z"/>
	</g>
	<g>
		<line class="st1" x1="311" y1="478.1" x2="247" y2="377.8"/>
		<circle class="st0" cx="248.7" cy="371.6" r="53.6"/>
		<circle class="st2" cx="248.7" cy="371.6" r="41.3"/>
	</g>
	
		<rect x="287.1" y="424.5" transform="matrix(0.8552 -0.5183 0.5183 0.8552 -194.0024 220.2679)" class="st3" width="20.2" height="65.7"/>
	<path class="st3" d="M253,337.3c2.6,0.2,11.7,1.3,19.4,8.8c8.1,7.8,9.5,17.3,9.7,19.8"/>
</g>
</svg>